<?xml version="1.0" encoding="UTF-8"?>
<svg xmlns="http://www.w3.org/2000/svg" width="1128" height="191" viewBox="0 0 1128 191">
  <defs>
    <filter id="soft-panel" x="-10%" y="-25%" width="120%" height="150%">
      <feGaussianBlur stdDeviation="7"/>
    </filter>
    <clipPath id="sun-above-wave">
      <path d="M-112 28.5 C-41.985 28.5 -17.76 162.5 93.39 162.5 S228.765 28.5 298.78 28.5 C368.795 28.5 393.02 162.5 504.17 162.5 S639.545 28.5 709.56 28.5 C779.575 28.5 803.8 162.5 914.95 162.5 S1050.325 28.5 1120.34 28.5 C1190.355 28.5 1214.58 162.5 1325.73 162.5 L1325.73 0 L-112 0 Z"/>
    </clipPath>
  </defs>

  <rect width="1128" height="191" fill="#F7F9FD"/>

  <g clip-path="url(#sun-above-wave)">
    <circle cx="504.17" cy="139.9" r="70.3" fill="#F5A623"/>
  </g>
  <path d="M-112 28.5 C-41.985 28.5 -17.76 162.5 93.39 162.5 S228.765 28.5 298.78 28.5 C368.795 28.5 393.02 162.5 504.17 162.5 S639.545 28.5 709.56 28.5 C779.575 28.5 803.8 162.5 914.95 162.5 S1050.325 28.5 1120.34 28.5 C1190.355 28.5 1214.58 162.5 1325.73 162.5"
        fill="none" stroke="#102D75" stroke-linecap="round" stroke-width="22"/>

  <rect x="680" y="108" width="415" height="76" rx="15"
        fill="#F7F9FD" opacity="0.94" filter="url(#soft-panel)"/>

  <text x="700" y="145" fill="#102D75"
        font-family="-apple-system, BlinkMacSystemFont, 'Segoe UI', Arial, sans-serif"
        font-size="26" font-weight="700">Energy that moves with you.</text>
  <text x="700" y="176" fill="#40557F"
        font-family="-apple-system, BlinkMacSystemFont, 'Segoe UI', Arial, sans-serif"
        font-size="16" font-weight="500">Whole-home energy, quietly coordinated.</text>
</svg>
